<svg width="157" height="26" viewBox="0 0 157 26" fill="none" xmlns="http://www.w3.org/2000/svg">
<g clip-path="url(#clip0_85518_99157)">
<path d="M76.6942 4.49121L76.6485 4.99081V22.1073H78.8091V2.27424H75.0307L69.1221 15.269H67.6209L61.7123 2.27424H57.9339V22.1073H60.0945V4.96999L60.0488 4.49121H60.4292L66.1704 17.1946H70.5777L76.3189 4.49121H76.6992H76.6942Z" fill="#21272C"/>
<path d="M98.8223 4.65773C96.9255 2.69056 94.4961 1.69656 91.5951 1.69656C88.6941 1.69656 86.2647 2.69056 84.3679 4.65773C82.4711 6.62491 81.5075 9.15933 81.5075 12.1882C81.5075 15.217 82.466 17.7566 84.3679 19.7186C86.2647 21.6858 88.6941 22.6798 91.5951 22.6798C94.4961 22.6798 96.9255 21.6858 98.8223 19.7186C100.719 17.7514 101.683 15.2222 101.683 12.1882C101.683 9.15413 100.724 6.6197 98.8223 4.65773ZM97.3008 18.2718C95.8249 19.8227 93.9078 20.6137 91.5951 20.6137C89.2824 20.6137 87.3653 19.8279 85.8894 18.2718C84.4186 16.721 83.668 14.6757 83.668 12.1882C83.668 9.70057 84.4136 7.66053 85.8894 6.10449C87.3653 4.55365 89.2824 3.76262 91.5951 3.76262C93.9078 3.76262 95.8249 4.54844 97.3008 6.10449C98.7716 7.65533 99.5222 9.70057 99.5222 12.1882C99.5222 14.6757 98.7767 16.7158 97.3008 18.2718Z" fill="#21272C"/>
<path d="M122.38 26V20.0256H120.169L115.807 2.26899H108.636L104.274 20.0256H102.063V26H104.224V22.1021H120.215V26H122.38ZM106.43 20.0256L110.325 4.34025H114.129L118.024 20.0256H106.43Z" fill="#21272C"/>
<path d="M134.02 2.27419L130.221 12.3807H126.169L122.37 2.27419H120.093L124.734 14.4519H129.385L126.291 22.1021H128.563L136.297 2.26899H134.025L134.02 2.27419Z" fill="#21272C"/>
<path d="M156.995 15.269H154.844C154.469 16.2943 153.972 17.1738 153.364 17.8867C151.796 19.6926 149.788 20.6085 147.399 20.6085C145.01 20.6085 143.169 19.8227 141.694 18.2666C140.223 16.7158 139.472 14.6706 139.472 12.183C139.472 9.69538 140.218 7.65534 141.694 6.0993C143.169 4.54846 145.087 3.75742 147.399 3.75742C149.712 3.75742 151.705 4.6005 153.222 6.27104C153.81 6.93196 154.307 7.73861 154.702 8.66495H156.863C156.478 7.41075 155.889 6.28144 155.113 5.30827C153.242 2.89874 150.65 1.68096 147.404 1.68096C144.503 1.68096 142.074 2.67496 140.177 4.64213C138.28 6.60931 137.317 9.14373 137.317 12.1726C137.317 15.2014 138.275 17.741 140.177 19.703C142.074 21.6702 144.503 22.6642 147.404 22.6642C150.61 22.6642 153.211 21.3787 155.139 18.8391C155.94 17.8243 156.564 16.6169 157 15.2482L156.995 15.269Z" fill="#21272C"/>
<path d="M20.3274 9.21138H0V2.37831H1.94754V7.21298H18.3799V2.37831H20.3274V9.21658V9.21138Z" fill="#21272C"/>
<path d="M20.3274 22.0136H18.3799V17.1737H1.94754V22.0136H0V15.1753H20.3274V22.0136Z" fill="#21272C"/>
<path d="M38.6413 24.4544V0H39.6202V24.4544H38.6413Z" fill="#21272C"/>
</g>
<defs>
<clipPath id="clip0_85518_99157">
<rect width="157" height="26" fill="white"/>
</clipPath>
</defs>
</svg>
